<mxfile host="app.diagrams.net" modified="2023-04-05T18:08:17.509Z" agent="Mozilla/5.0 (Windows NT 10.0; Win64; x64) AppleWebKit/537.36 (KHTML, like Gecko) Chrome/111.0.0.0 Safari/537.36" etag="1xBYpDuMuu6nica8rUNR" version="21.1.2" type="device">
  <diagram name="Page-1" id="2YBvvXClWsGukQMizWep">
    <mxGraphModel dx="1674" dy="788" grid="0" gridSize="10" guides="1" tooltips="1" connect="1" arrows="1" fold="1" page="0" pageScale="1" pageWidth="850" pageHeight="1100" math="0" shadow="0">
      <root>
        <mxCell id="0" />
        <mxCell id="1" parent="0" />
        <mxCell id="Tk5oGtbchLQkcRBc1k7T-1" value="Adding an company to Webbapp" style="rounded=0;whiteSpace=wrap;html=1;" parent="1" vertex="1">
          <mxGeometry x="280" y="40" width="240" height="70" as="geometry" />
        </mxCell>
        <mxCell id="Tk5oGtbchLQkcRBc1k7T-2" value="" style="endArrow=none;html=1;rounded=0;entryX=0.5;entryY=1;entryDx=0;entryDy=0;" parent="1" target="Tk5oGtbchLQkcRBc1k7T-1" edge="1">
          <mxGeometry width="50" height="50" relative="1" as="geometry">
            <mxPoint x="400" y="190" as="sourcePoint" />
            <mxPoint x="250" y="160" as="targetPoint" />
          </mxGeometry>
        </mxCell>
        <mxCell id="Tk5oGtbchLQkcRBc1k7T-3" value="" style="endArrow=none;html=1;rounded=0;" parent="1" edge="1">
          <mxGeometry width="50" height="50" relative="1" as="geometry">
            <mxPoint x="80" y="190" as="sourcePoint" />
            <mxPoint x="678" y="190" as="targetPoint" />
          </mxGeometry>
        </mxCell>
        <mxCell id="Tk5oGtbchLQkcRBc1k7T-4" value="1. Open the Webapp" style="rounded=0;whiteSpace=wrap;html=1;" parent="1" vertex="1">
          <mxGeometry x="74" y="220" width="120" height="60" as="geometry" />
        </mxCell>
        <mxCell id="Tk5oGtbchLQkcRBc1k7T-5" value="2.Login" style="rounded=0;whiteSpace=wrap;html=1;" parent="1" vertex="1">
          <mxGeometry x="228" y="220" width="120" height="60" as="geometry" />
        </mxCell>
        <mxCell id="Tk5oGtbchLQkcRBc1k7T-6" value="3. Register the company&amp;nbsp;" style="rounded=0;whiteSpace=wrap;html=1;" parent="1" vertex="1">
          <mxGeometry x="371" y="220" width="129" height="60" as="geometry" />
        </mxCell>
        <mxCell id="Tk5oGtbchLQkcRBc1k7T-7" value="4. Make the&amp;nbsp;advertisement" style="rounded=0;whiteSpace=wrap;html=1;" parent="1" vertex="1">
          <mxGeometry x="531" y="220" width="135" height="60" as="geometry" />
        </mxCell>
        <mxCell id="Tk5oGtbchLQkcRBc1k7T-14" value="" style="endArrow=none;html=1;rounded=0;" parent="1" edge="1">
          <mxGeometry width="50" height="50" relative="1" as="geometry">
            <mxPoint x="600" y="220" as="sourcePoint" />
            <mxPoint x="600" y="190" as="targetPoint" />
          </mxGeometry>
        </mxCell>
        <mxCell id="Tk5oGtbchLQkcRBc1k7T-15" value="" style="endArrow=none;html=1;rounded=0;" parent="1" edge="1">
          <mxGeometry width="50" height="50" relative="1" as="geometry">
            <mxPoint x="435.21000000000004" y="220" as="sourcePoint" />
            <mxPoint x="435.21000000000004" y="190" as="targetPoint" />
          </mxGeometry>
        </mxCell>
        <mxCell id="Tk5oGtbchLQkcRBc1k7T-16" value="" style="endArrow=none;html=1;rounded=0;" parent="1" edge="1">
          <mxGeometry width="50" height="50" relative="1" as="geometry">
            <mxPoint x="280" y="220" as="sourcePoint" />
            <mxPoint x="280" y="190" as="targetPoint" />
          </mxGeometry>
        </mxCell>
        <mxCell id="Tk5oGtbchLQkcRBc1k7T-17" value="" style="endArrow=none;html=1;rounded=0;" parent="1" edge="1">
          <mxGeometry width="50" height="50" relative="1" as="geometry">
            <mxPoint x="130" y="220" as="sourcePoint" />
            <mxPoint x="130" y="190" as="targetPoint" />
          </mxGeometry>
        </mxCell>
        <mxCell id="7lJlP-SMGpll2SlZlps1-1" value="2.1 Create an account if needed" style="rounded=0;whiteSpace=wrap;html=1;" vertex="1" parent="1">
          <mxGeometry x="223" y="315" width="135" height="60" as="geometry" />
        </mxCell>
        <mxCell id="7lJlP-SMGpll2SlZlps1-2" value="" style="endArrow=none;html=1;rounded=0;entryX=0.5;entryY=1;entryDx=0;entryDy=0;" edge="1" parent="1">
          <mxGeometry width="50" height="50" relative="1" as="geometry">
            <mxPoint x="286.1600000000001" y="315" as="sourcePoint" />
            <mxPoint x="287" y="280" as="targetPoint" />
          </mxGeometry>
        </mxCell>
        <mxCell id="7lJlP-SMGpll2SlZlps1-3" value="3.1 Add details in the form, like name, address, NIF, website link ..." style="rounded=0;whiteSpace=wrap;html=1;" vertex="1" parent="1">
          <mxGeometry x="375" y="315" width="135" height="60" as="geometry" />
        </mxCell>
        <mxCell id="7lJlP-SMGpll2SlZlps1-4" value="" style="endArrow=none;html=1;rounded=0;entryX=0.5;entryY=1;entryDx=0;entryDy=0;" edge="1" parent="1">
          <mxGeometry width="50" height="50" relative="1" as="geometry">
            <mxPoint x="438.1600000000001" y="315" as="sourcePoint" />
            <mxPoint x="439" y="280" as="targetPoint" />
          </mxGeometry>
        </mxCell>
      </root>
    </mxGraphModel>
  </diagram>
</mxfile>
